<svg width="37" height="37" viewBox="0 0 37 37" fill="none" xmlns="http://www.w3.org/2000/svg">
<g clip-path="url(#clip0_1133_926)">
<path d="M29.527 20.3614C29.587 19.9118 29.617 19.4472 29.617 18.9527C29.617 18.4731 29.587 17.9936 29.5121 17.544L32.5542 15.1762C32.824 14.9664 32.8989 14.5618 32.734 14.2621L29.8567 9.28674C29.6769 8.95705 29.3023 8.85214 28.9726 8.95705L25.3909 10.3957C24.6416 9.82623 23.8474 9.34668 22.9632 8.98702L22.4237 5.18059C22.3638 4.82092 22.064 4.56616 21.7044 4.56616H15.9498C15.5901 4.56616 15.3054 4.82092 15.2454 5.18059L14.7059 8.98702C13.8218 9.34668 13.0125 9.84122 12.2782 10.3957L8.69657 8.95705C8.36688 8.83716 7.99223 8.95705 7.8124 9.28674L4.95008 14.2621C4.77025 14.5768 4.83019 14.9664 5.12991 15.1762L8.17206 17.544C8.09713 17.9936 8.03719 18.4881 8.03719 18.9527C8.03719 19.4172 8.06716 19.9118 8.14209 20.3614L5.09994 22.7291C4.83019 22.9389 4.75526 23.3436 4.92011 23.6433L7.79741 28.6186C7.97724 28.9483 8.35189 29.0532 8.68158 28.9483L12.2632 27.5097C13.0125 28.0791 13.8068 28.5587 14.691 28.9183L15.2304 32.7248C15.3054 33.0844 15.5901 33.3392 15.9498 33.3392H21.7044C22.064 33.3392 22.3638 33.0844 22.4087 32.7248L22.9482 28.9183C23.8324 28.5587 24.6416 28.0791 25.3759 27.5097L28.9576 28.9483C29.2873 29.0682 29.6619 28.9483 29.8418 28.6186L32.7191 23.6433C32.8989 23.3136 32.824 22.9389 32.5392 22.7291L29.527 20.3614ZM18.8271 24.3476C15.8599 24.3476 13.4321 21.9199 13.4321 18.9527C13.4321 15.9855 15.8599 13.5577 18.8271 13.5577C21.7943 13.5577 24.222 15.9855 24.222 18.9527C24.222 21.9199 21.7943 24.3476 18.8271 24.3476Z" fill="#06041F"/>
</g>
<defs>
<clipPath id="clip0_1133_926">
<rect width="35.9663" height="35.9663" fill="white" transform="translate(0.84375 0.968994)"/>
</clipPath>
</defs>
</svg>
