<svg width="21" height="21" viewBox="0 0 21 21" fill="none" xmlns="http://www.w3.org/2000/svg">
<path fill-rule="evenodd" clip-rule="evenodd" d="M4.31453 4.20264C5.26168 4.20264 6.03717 4.99019 6.03717 5.93275C6.03717 6.53151 5.72365 7.06913 5.25414 7.37949L7.10357 11.3841C7.31116 11.2944 7.53562 11.2424 7.77476 11.2424C8.28349 11.2424 8.74057 11.4648 9.05743 11.8166L12.458 10.176C12.4467 10.0972 12.4431 10.0191 12.4431 9.93737C12.4431 8.98889 13.2245 8.21471 14.1732 8.21471C15.1161 8.21471 15.8884 8.98889 15.8884 9.93737C15.8884 10.4466 15.6632 10.9046 15.3067 11.22L16.6938 13.6735C16.8223 13.6426 16.9516 13.6213 17.089 13.6213C18.0363 13.6213 18.8191 14.3971 18.8191 15.344C18.8191 16.2909 18.0363 17.0741 17.089 17.0741C16.1418 17.0741 15.3664 16.2909 15.3664 15.344C15.3664 14.8782 15.5542 14.4551 15.8586 14.1433L14.4342 11.6302C14.3481 11.6438 14.2628 11.6526 14.1732 11.6526C13.6472 11.6526 13.1707 11.4138 12.8532 11.0411L9.47505 12.6818C9.49011 12.7726 9.49741 12.8629 9.49741 12.9577C9.49741 13.9061 8.72351 14.6878 7.77476 14.6878C6.83186 14.6878 6.05954 13.9061 6.05954 12.9577C6.05954 12.6079 6.16057 12.283 6.34294 12.0106L4.33689 7.66291C4.32957 7.663 4.32179 7.66291 4.31453 7.66291C3.36139 7.66291 2.59186 6.87537 2.59186 5.93281C2.59186 4.99024 3.36139 4.20264 4.31453 4.20264ZM14.1732 9.16926C13.7318 9.16926 13.3976 9.49609 13.3976 9.93737C13.3976 10.3658 13.7318 10.698 14.1732 10.698C14.6018 10.698 14.9339 10.3658 14.9339 9.93737C14.9339 9.49609 14.6018 9.16926 14.1732 9.16926ZM7.77476 12.197C7.3462 12.197 7.01409 12.5292 7.01409 12.9576C7.01409 13.3989 7.3462 13.7332 7.77476 13.7332C8.21617 13.7332 8.54286 13.3989 8.54286 12.9576C8.54286 12.5292 8.21617 12.197 7.77476 12.197ZM17.089 14.5759C16.6648 14.5759 16.3209 14.9199 16.3209 15.344C16.3209 15.768 16.6648 16.1196 17.089 16.1196C17.5132 16.1196 17.8646 15.768 17.8646 15.344C17.8646 14.9199 17.5132 14.5759 17.089 14.5759Z" fill="black"/>
<path fill-rule="evenodd" clip-rule="evenodd" d="M0.470133 5.25648e-05C0.343616 0.00195764 0.223036 0.0540009 0.134888 0.144743C0.0467415 0.235486 -0.00175858 0.357508 4.76837e-05 0.483982V18.3818C4.76837e-05 19.8177 1.18257 21 2.61892 21H20.5227C20.6493 21 20.7707 20.9498 20.8602 20.8603C20.9497 20.7708 21 20.6494 21 20.5228C21 20.3963 20.9497 20.2749 20.8602 20.1854C20.7707 20.0959 20.6493 20.0457 20.5227 20.0457H2.61892C1.70694 20.0457 0.954487 19.2934 0.954487 18.3818V0.483982C0.955399 0.420157 0.943493 0.356791 0.919472 0.297649C0.895449 0.238507 0.8598 0.184783 0.814638 0.13966C0.769474 0.0945373 0.715715 0.0589315 0.65654 0.0349508C0.597364 0.0109702 0.533978 -0.000894727 0.470133 5.25648e-05Z" fill="black"/>
</svg>
