<svg width="37" height="37" viewBox="0 0 37 37" fill="none" xmlns="http://www.w3.org/2000/svg">
<rect width="37" height="37" rx="8" fill="#47D7AC"/>
<path d="M27.9062 8.69995H10.0938C8.80141 8.69995 7.75 9.76538 7.75 11.075V25.325C7.75 26.6345 8.80141 27.7 10.0938 27.7H27.9062C29.1986 27.7 30.25 26.6345 30.25 25.325V11.075C30.25 9.76538 29.1986 8.69995 27.9062 8.69995ZM10.0938 9.64995H27.9062C28.6816 9.64995 29.3125 10.2893 29.3125 11.075V13.45H8.6875V11.075C8.6875 10.2893 9.31844 9.64995 10.0938 9.64995ZM15.8748 20.1V14.4H22.1247V20.1H15.8748ZM22.1252 21.05V26.75H15.8753V21.05H22.1252ZM14.9373 20.1H8.6875V14.4H14.9373V20.1ZM23.0627 14.4H29.3125V20.1H23.0627V14.4ZM8.6875 25.325V21.05H14.9373V26.75H10.0938C9.31844 26.75 8.6875 26.1106 8.6875 25.325ZM27.9062 26.75H23.0627V21.05H29.3125V25.325C29.3125 26.1106 28.6816 26.75 27.9062 26.75Z" fill="black"/>
</svg>


